<svg xmlns="http://www.w3.org/2000/svg" viewBox="0 0 776.104 238.925" aria-labelledby="company-name">
  <title id="company-name">Digital Innovation</title>
  <path class="lb" fill="#f60" d="M48.996 176.449H19.599V41.218h29.397V21.619H0v174.428h48.996z"/>
  <path class="1d" fill="#fff" d="M141.408 138.667c-5.037 5.961-13.181 8.928-24.403 8.928H88.992c-1.512 0-2.239-.672-2.239-2.044V74.19c0-1.372.727-2.072 2.239-2.072h28.013c11.362 0 19.506 2.966 24.487 8.872 5.01 5.905 7.5 15.504 7.5 28.796 0 13.293-2.519 22.92-7.584 28.88m14.552-72.564c-8.899-9.515-21.884-14.274-38.955-14.274H76.091c-6.438 0-9.627 3.163-9.627 9.46v97.136c0 6.326 3.19 9.459 9.627 9.459h40.914c17.071 0 30.056-4.757 38.955-14.272 8.872-9.487 13.321-24.067 13.321-43.657 0-19.73-4.449-34.338-13.321-43.852"/>
  <path class="1i1" fill="#fff" d="M193.18 167.884h20.29V51.829h-20.29z"/>
  <path class="1g" fill="#fff" d="M336.045 107.631c-5.037-5.905-12.79-8.843-23.2-8.843H285v17.687h25.775c4.813 0 8.396 1.287 10.746 3.89 2.35 2.574 3.526 6.213 3.526 10.914 0 4.813-1.26 8.73-3.778 11.781-2.518 3.023-6.661 4.534-12.37 4.534h-19.282c-11.333 0-19.533-2.939-24.57-8.843-5.038-5.905-7.584-15.504-7.584-28.797 0-13.406 2.574-23.06 7.668-28.964 5.093-5.906 13.265-8.872 24.486-8.872h47.799v-20.29h-47.799c-16.958 0-29.944 4.786-38.926 14.358-9.012 9.57-13.49 24.15-13.49 43.768 0 19.477 4.478 34.002 13.49 43.573 8.982 9.57 21.968 14.356 38.926 14.356H307.5c6.55 0 12.063-.923 16.596-2.827 4.533-1.902 8.255-4.477 11.193-7.724 2.91-3.273 5.038-7.108 6.354-11.529 1.314-4.421 1.986-9.15 1.986-14.188 0-10.075-2.546-18.079-7.584-23.984"/>
  <path class="1i2" fill="#fff" d="M366.83 167.884h20.289V51.829h-20.29z"/>
  <path class="1t" fill="#fff" d="M406.036 51.829v20.29H439.9v95.764h20.456V72.118h33.863v-20.29z"/>
  <path class="1a" fill="#fff" d="M564.264 61.17h-5.317v-5.318h5.317zm15.14 3.638c-1.035-2.77-2.295-5.121-3.805-7.053v3.974h-6.464v-6.493h4.085a16.044 16.044 0 00-2.883-2.07 21.033 21.033 0 00-2.518-1.231v1.314h-5.43v-2.854c-1.062-.168-2.182-.336-3.358-.419v3.357h-6.464v-3.441c-5.01.279-9.207 1.37-12.594 3.273-3.945 2.239-7.024 6.13-9.206 11.643l-40.887 103.49h22.416l36.912-93.64c1.148-2.658 3.107-3.974 5.877-3.974 2.743 0 4.646 1.316 5.682 3.975l35.345 93.638h22.612z"/>
  <path class="1l" fill="#fff" d="M672.008 147.594c-4.59 0-8.396-.504-11.417-1.538-3.051-1.036-5.486-2.435-7.306-4.2-1.846-1.79-3.133-3.916-3.89-6.38a27.41 27.41 0 01-1.12-7.807v-75.84h-20.288v76.008c0 5.848.784 11.193 2.322 16.063 1.568 4.869 4.059 9.096 7.502 12.649 3.44 3.555 7.862 6.325 13.32 8.34 5.429 2.015 12.005 2.995 19.673 2.995h46.26v-20.29z"/>
  <path class="2i1" fill="#f60" d="M110.485 238.14h7.905v-45.112h-7.905z"/>
  <path class="2n1" fill="#f60" d="M182.587 193.029v35.677c0 .783-.214 1.387-.677 1.85-.463.463-1.139.713-1.994.713-.748 0-1.353-.178-1.78-.535a3.624 3.624 0 01-1.068-1.352l-13.174-28.804c-.926-2.565-2.207-4.63-3.846-6.126-1.637-1.494-3.988-2.207-7.121-2.207-3.525 0-6.124.89-7.832 2.67-1.675 1.817-2.53 4.202-2.53 7.122v36.104h7.906v-35.677c0-.82.213-1.459.676-1.922.464-.463 1.174-.712 2.065-.712 1.282 0 2.207.677 2.777 1.957l13.174 28.805c.463 1.282.998 2.458 1.603 3.454a11.663 11.663 0 002.243 2.67 8.721 8.721 0 003.062 1.639c1.211.391 2.563.57 4.13.57 3.454 0 6.053-.891 7.761-2.708 1.746-1.78 2.6-4.2 2.6-7.155v-36.033z"/>
  <path class="2n2" fill="#f60" d="M254.687 193.029v35.677c0 .783-.214 1.387-.677 1.85-.463.463-1.138.713-1.993.713-.748 0-1.354-.178-1.781-.535a3.624 3.624 0 01-1.067-1.352l-13.174-28.804c-.927-2.565-2.207-4.63-3.846-6.126-1.639-1.494-3.988-2.207-7.121-2.207-3.526 0-6.124.89-7.797 2.67-1.71 1.817-2.565 4.202-2.565 7.122v36.104h7.905v-35.677c0-.82.214-1.459.677-1.922.499-.463 1.174-.712 2.065-.712 1.282 0 2.207.677 2.777 1.957l13.174 28.805c.463 1.282.997 2.458 1.603 3.454a11.663 11.663 0 002.242 2.67 8.721 8.721 0 003.062 1.639c1.212.391 2.564.57 4.131.57 3.454 0 6.053-.891 7.797-2.708 1.71-1.78 2.563-4.2 2.563-7.155v-36.033z"/>
  <path class="2o1" fill="#f60" d="M321.162 226.818c-1.993 2.278-5.126 3.418-9.47 3.418h-6.125c-4.415 0-7.62-1.14-9.577-3.382-1.96-2.279-2.92-6.017-2.92-11.181 0-5.198.996-8.972 2.955-11.286 1.993-2.314 5.162-3.49 9.542-3.49h6.124c4.38 0 7.55 1.176 9.507 3.49 1.957 2.314 2.92 6.052 2.92 11.215 0 5.199-.963 8.902-2.956 11.216m5.661-28.163c-3.49-3.74-8.509-5.626-15.132-5.626h-6.124c-6.622 0-11.644 1.887-15.131 5.626-3.525 3.739-5.271 9.4-5.271 17.018 0 7.584 1.746 13.21 5.27 16.913 3.488 3.703 8.51 5.554 15.132 5.554h6.124c6.623 0 11.643-1.851 15.132-5.554 3.525-3.703 5.27-9.329 5.27-16.913 0-7.619-1.745-13.28-5.27-17.018"/>
  <path class="2v" fill="#f60" d="M389.026 193.029l-14.385 36.282c-.426 1.032-1.174 1.53-2.207 1.53-1.07 0-1.78-.498-2.207-1.53l-13.673-36.282h-8.687l15.096 40.092c.855 2.243 2.064 3.773 3.703 4.592 1.637.82 3.56 1.212 5.768 1.212 2.385 0 4.308-.428 5.874-1.283 1.532-.89 2.706-2.385 3.56-4.52l15.916-40.093z"/>
  <path class="2a" fill="#f60" d="M442.932 198.049c-.783-2.136-1.957-3.668-3.49-4.523-1.53-.853-3.489-1.28-5.838-1.28-2.42 0-4.38.427-5.91 1.28-1.568.855-2.742 2.387-3.597 4.523l-15.844 40.092h8.687l14.314-36.282c.463-1.033 1.21-1.532 2.279-1.532 1.068 0 1.78.499 2.207 1.532l13.672 36.282h8.759z"/>
  <path class="2t" fill="#f60" d="M470.028 193.029v7.87h13.138v37.242h7.975v-37.243h13.139v-7.87z"/>
  <path class="2i2" fill="#f60" d="M525.073 238.14h7.905v-45.112h-7.905z"/>
  <path class="2o2" fill="#f60" d="M591.549 226.818c-1.993 2.278-5.162 3.418-9.471 3.418h-6.16c-4.415 0-7.584-1.14-9.542-3.382-1.96-2.279-2.955-6.017-2.955-11.181 0-5.198.996-8.972 2.99-11.286 1.994-2.314 5.163-3.49 9.507-3.49h6.16c4.38 0 7.513 1.176 9.47 3.49 1.994 2.314 2.956 6.052 2.956 11.215 0 5.199-.997 8.902-2.955 11.216m5.66-28.163c-3.489-3.74-8.544-5.626-15.131-5.626h-6.16c-6.587 0-11.644 1.887-15.133 5.626-3.488 3.739-5.233 9.4-5.233 17.018 0 7.584 1.745 13.21 5.233 16.913 3.49 3.703 8.546 5.554 15.133 5.554h6.16c6.587 0 11.642-1.851 15.132-5.554 3.49-3.703 5.235-9.329 5.235-16.913 0-7.619-1.746-13.28-5.235-17.018"/>
  <path class="2n3" fill="#f60" d="M665.074 193.029v35.677c0 .783-.25 1.387-.713 1.85-.463.463-1.102.713-1.957.713-.749 0-1.354-.178-1.817-.535a4.516 4.516 0 01-1.067-1.352l-13.174-28.804c-.927-2.565-2.207-4.63-3.81-6.126-1.637-1.494-4.024-2.207-7.122-2.207-3.525 0-6.124.89-7.832 2.67-1.674 1.817-2.53 4.202-2.53 7.122v36.104h7.87v-35.677c0-.82.25-1.459.713-1.922.463-.463 1.138-.712 2.028-.712 1.283 0 2.243.677 2.813 1.957l13.174 28.805c.428 1.282.962 2.458 1.603 3.454a10.141 10.141 0 002.243 2.67 8.721 8.721 0 003.062 1.639c1.175.391 2.563.57 4.095.57 3.49 0 6.088-.891 7.797-2.708 1.71-1.78 2.564-4.2 2.564-7.155v-36.033z"/>
  <path class="rb" fill="#f60" d="M727.108 196.047h48.996V21.62h-48.996v19.599h29.399v135.23h-29.399z"/>
  <path class="speck1" fill="#f60" d="M590.596 50.156h-8.98v-8.979h8.98z"/>
  <path class="speck2" fill="#f60" d="M575.561 36.441h-8.98v-8.98h8.98z"/>
  <path class="speck3" fill="#f60" d="M604.247 31.952h-9.587v-9.585h9.587z"/>
  <path class="speck4"v fill="#f60" d="M582.883 19.901H571.96V8.98h10.922z"/>
  <path class="speck5" fill="#f60" d="M602.212 8.98h-8.98V0h8.98z"/>
</svg>